<svg width="156" height="31" viewBox="0 0 156 31" fill="none" xmlns="http://www.w3.org/2000/svg">
<path d="M19.7881 11.1357V18.8873H16.0683V1.00828H19.6681V7.85991H19.8361C20.1401 7.06795 20.628 6.44399 21.3 5.98801C21.98 5.53204 22.8279 5.30405 23.8439 5.30405C25.2358 5.30405 26.3557 5.75202 27.2037 6.64797C28.0516 7.54392 28.4756 8.77986 28.4756 10.3558V18.8873H24.7678V11.0157C24.7678 10.1838 24.5598 9.53982 24.1438 9.08384C23.7279 8.61987 23.1319 8.38788 22.3559 8.38788C21.604 8.38788 20.988 8.63187 20.508 9.11984C20.0281 9.59981 19.7881 10.2718 19.7881 11.1357Z" fill="#2D2D2D"/>
<path d="M30.4685 18.8873V5.47204H34.1883V18.8873H30.4685Z" fill="#2D2D2D"/>
<path d="M39.9009 11.1357V18.8873H36.1811V5.47204H39.8409V7.85991H39.9729C40.2769 7.07595 40.7609 6.45598 41.4248 6.00001C42.0888 5.53603 42.9167 5.30405 43.9087 5.30405C45.3086 5.30405 46.4286 5.75602 47.2685 6.65997C48.1165 7.55592 48.5404 8.78786 48.5404 10.3558V18.8873H44.8206V11.0157C44.8206 10.1918 44.6086 9.54782 44.1847 9.08384C43.7687 8.61987 43.1887 8.38788 42.4448 8.38788C41.6928 8.38788 41.0808 8.63187 40.6089 9.11984C40.1369 9.59981 39.9009 10.2718 39.9009 11.1357Z" fill="#2D2D2D"/>
<path d="M50.5333 1.00828H54.2531V10.5718H54.4571L58.7408 5.47204H63.0126L58.0449 11.2917L63.2526 18.8873H58.9088L55.261 13.4756L54.2531 14.6155V18.8873H50.5333V1.00828Z" fill="#2D2D2D"/>
<path d="M86.2942 18.8873V5.47204H89.894V7.82391H90.038C90.278 6.99196 90.686 6.36399 91.2619 5.94001C91.8379 5.50804 92.5019 5.29205 93.2538 5.29205C93.4378 5.29205 93.6378 5.30405 93.8538 5.32805C94.0698 5.35205 94.2578 5.38404 94.4178 5.42404V8.71186C94.2418 8.65586 93.9978 8.61187 93.6858 8.57987C93.3818 8.53987 93.1018 8.51987 92.8458 8.51987C92.0299 8.51987 91.3539 8.77986 90.818 9.29983C90.282 9.8118 90.014 10.4798 90.014 11.3037V18.8873H86.2942Z" fill="#2D2D2D"/>
<path d="M101.414 19.1513C100.062 19.1513 98.8905 18.8633 97.8985 18.2873C96.9146 17.7034 96.1546 16.8954 95.6187 15.8635C95.0907 14.8235 94.8267 13.6156 94.8267 12.2397C94.8267 10.8557 95.0907 9.64381 95.6187 8.60387C96.1546 7.56392 96.9146 6.75597 97.8985 6.18C98.8905 5.59603 100.062 5.30405 101.414 5.30405C102.774 5.30405 103.946 5.59603 104.93 6.18C105.922 6.75597 106.682 7.56392 107.21 8.60387C107.746 9.64381 108.014 10.8557 108.014 12.2397C108.014 13.6156 107.746 14.8235 107.21 15.8635C106.682 16.8954 105.922 17.7034 104.93 18.2873C103.946 18.8633 102.774 19.1513 101.414 19.1513ZM98.6065 12.2157C98.6065 13.3836 98.8425 14.3476 99.3145 15.1075C99.7864 15.8675 100.49 16.2474 101.426 16.2474C102.354 16.2474 103.054 15.8675 103.526 15.1075C103.998 14.3476 104.234 13.3836 104.234 12.2157C104.234 11.0477 103.998 10.0878 103.526 9.33583C103.054 8.58387 102.354 8.20789 101.426 8.20789C100.49 8.20789 99.7864 8.58387 99.3145 9.33583C98.8425 10.0878 98.6065 11.0477 98.6065 12.2157Z" fill="#2D2D2D"/>
<path d="M112.119 18.8873L108.471 5.47204H112.227L114.315 14.4955H114.423L116.606 5.47204H120.278L122.486 14.4355H122.606L124.646 5.47204H128.402L124.754 18.8873H120.818L118.514 10.4518H118.358L116.054 18.8873H112.119Z" fill="#2D2D2D"/>
<path d="M136.526 5.47204V8.27989H133.982V14.7595C133.982 15.6315 134.406 16.0675 135.254 16.0675C135.398 16.0675 135.554 16.0555 135.722 16.0315C135.898 16.0075 136.05 15.9795 136.178 15.9475L136.766 18.7313C135.974 18.9633 135.206 19.0793 134.462 19.0793C133.135 19.0793 132.103 18.7433 131.367 18.0714C130.639 17.3994 130.275 16.4594 130.275 15.2515V8.27989H128.451V5.47204H130.275V2.28021H133.982V5.47204H136.526Z" fill="#2D2D2D"/>
<path d="M141.687 11.1357V18.8873H137.967V1.00828H141.567V7.85991H141.735C142.039 7.06795 142.527 6.44399 143.199 5.98801C143.879 5.53204 144.727 5.30405 145.743 5.30405C147.135 5.30405 148.255 5.75202 149.103 6.64797C149.951 7.54392 150.375 8.77986 150.375 10.3558V18.8873H146.667V11.0157C146.667 10.1838 146.459 9.53982 146.043 9.08384C145.627 8.61987 145.031 8.38788 144.255 8.38788C143.503 8.38788 142.887 8.63187 142.407 9.11984C141.927 9.59981 141.687 10.2718 141.687 11.1357Z" fill="#2D2D2D"/>
<path d="M0 4.12811V1.00828H14.6752V4.12811H9.2275V18.8873H5.4597V4.12811H0Z" fill="#F37616"/>
<path d="M76.7655 19.1271C75.0936 19.1271 73.6217 18.7591 72.3498 18.0231C71.0858 17.2792 70.0979 16.2232 69.3859 14.8553C68.682 13.4794 68.33 11.8515 68.33 9.97158C68.33 8.03569 68.698 6.38378 69.4339 5.01585C70.1699 3.63993 71.1698 2.58799 72.4338 1.86002C73.6977 1.13206 75.1176 0.768085 76.6935 0.768085C78.0454 0.768085 79.2654 1.02407 80.3533 1.53604C81.4493 2.04801 82.3452 2.75598 83.0412 3.65993C83.7451 4.56388 84.1771 5.60782 84.3371 6.79176H80.5093C80.2613 5.9518 79.8174 5.29584 79.1774 4.82386C78.5374 4.34389 77.7295 4.1039 76.7535 4.1039C75.3856 4.1039 74.2777 4.61187 73.4297 5.62782C72.5817 6.63576 72.1578 8.07169 72.1578 9.93558C72.1578 11.7995 72.5738 13.2434 73.4057 14.2673C74.2457 15.2833 75.3776 15.7913 76.8015 15.7913C78.0495 15.7913 79.0294 15.4673 79.7414 14.8193C80.4613 14.1634 80.8333 13.2794 80.8573 12.1675H77.0295V9.32362H84.5171V11.5795C84.5171 13.1474 84.1851 14.4953 83.5212 15.6233C82.8572 16.7512 81.9412 17.6192 80.7733 18.2271C79.6054 18.8271 78.2694 19.1271 76.7655 19.1271Z" fill="#F37616"/>
<path d="M30.9003 3.20382C31.3003 3.5718 31.7763 3.75579 32.3282 3.75579C32.8802 3.75579 33.3522 3.5718 33.7442 3.20382C34.1441 2.83584 34.3441 2.39187 34.3441 1.8719C34.3441 1.35193 34.1441 0.91195 33.7442 0.55197C33.3522 0.18399 32.8802 0 32.3282 0C31.7763 0 31.3003 0.18399 30.9003 0.55197C30.5083 0.91195 30.3124 1.35193 30.3124 1.8719C30.3124 2.39187 30.5083 2.83584 30.9003 3.20382Z" fill="#F37616"/>
<path d="M152.549 18.7903C152.949 19.1583 153.425 19.3423 153.977 19.3423C154.529 19.3423 155.001 19.1583 155.393 18.7903C155.793 18.4224 155.993 17.9784 155.993 17.4584C155.993 16.9384 155.793 16.4985 155.393 16.1385C155.001 15.7705 154.529 15.5865 153.977 15.5865C153.425 15.5865 152.949 15.7705 152.549 16.1385C152.157 16.4985 151.961 16.9384 151.961 17.4584C151.961 17.9784 152.157 18.4224 152.549 18.7903Z" fill="#F37616"/>
<path d="M50.0567 29.2556V30.9524H49.4822V29.2556L47.9194 26.6866H48.4254C48.477 26.6866 48.5177 26.6995 48.5475 26.7253C48.5772 26.7511 48.603 26.7829 48.6249 26.8206L49.6012 28.4787C49.6409 28.5481 49.6737 28.6136 49.6995 28.6751C49.7273 28.7366 49.7521 28.7972 49.7739 28.8567C49.7957 28.7952 49.8195 28.7337 49.8453 28.6722C49.8711 28.6106 49.9039 28.5461 49.9436 28.4787L50.917 26.8206C50.9348 26.7888 50.9587 26.7591 50.9884 26.7313C51.0202 26.7015 51.0609 26.6866 51.1105 26.6866H51.6225L50.0567 29.2556Z" fill="#838383"/>
<path d="M53.6516 27.8893C53.8719 27.8893 54.0704 27.926 54.247 27.9994C54.4256 28.0728 54.5764 28.177 54.6995 28.312C54.8245 28.4469 54.9197 28.6106 54.9852 28.8031C55.0527 28.9936 55.0864 29.207 55.0864 29.4431C55.0864 29.6813 55.0527 29.8956 54.9852 30.0861C54.9197 30.2766 54.8245 30.4394 54.6995 30.5743C54.5764 30.7093 54.4256 30.8135 54.247 30.8869C54.0704 30.9583 53.8719 30.994 53.6516 30.994C53.4313 30.994 53.2319 30.9583 53.0533 30.8869C52.8767 30.8135 52.7259 30.7093 52.6008 30.5743C52.4758 30.4394 52.3796 30.2766 52.3121 30.0861C52.2446 29.8956 52.2109 29.6813 52.2109 29.4431C52.2109 29.207 52.2446 28.9936 52.3121 28.8031C52.3796 28.6106 52.4758 28.4469 52.6008 28.312C52.7259 28.177 52.8767 28.0728 53.0533 27.9994C53.2319 27.926 53.4313 27.8893 53.6516 27.8893ZM53.6516 30.5803C53.9493 30.5803 54.1716 30.481 54.3184 30.2826C54.4653 30.0822 54.5387 29.8033 54.5387 29.4461C54.5387 29.0869 54.4653 28.8071 54.3184 28.6067C54.1716 28.4062 53.9493 28.306 53.6516 28.306C53.5008 28.306 53.3698 28.3318 53.2587 28.3834C53.1476 28.435 53.0543 28.5094 52.9789 28.6067C52.9055 28.7039 52.8499 28.824 52.8122 28.9669C52.7765 29.1078 52.7586 29.2675 52.7586 29.4461C52.7586 29.6247 52.7765 29.7845 52.8122 29.9254C52.8499 30.0663 52.9055 30.1854 52.9789 30.2826C53.0543 30.3779 53.1476 30.4513 53.2587 30.5029C53.3698 30.5545 53.5008 30.5803 53.6516 30.5803Z" fill="#838383"/>
<path d="M57.0313 27.9369V29.8599C57.0313 30.0881 57.0839 30.2647 57.189 30.3898C57.2942 30.5148 57.453 30.5773 57.6653 30.5773C57.8201 30.5773 57.966 30.5406 58.1029 30.4672C58.2398 30.3937 58.3659 30.2915 58.481 30.1605V27.9369H59.0108V30.9524H58.6953C58.6199 30.9524 58.5722 30.9157 58.5524 30.8422L58.5107 30.5178C58.3797 30.6626 58.2329 30.7797 58.0702 30.869C57.9074 30.9563 57.7209 31 57.5105 31C57.3458 31 57.1999 30.9732 57.0729 30.9196C56.9479 30.8641 56.8427 30.7867 56.7574 30.6874C56.6721 30.5882 56.6076 30.4681 56.5639 30.3272C56.5222 30.1863 56.5014 30.0306 56.5014 29.8599V27.9369H57.0313Z" fill="#838383"/>
<path d="M60.7145 30.9524V27.9369H61.0182C61.0757 27.9369 61.1154 27.9478 61.1372 27.9696C61.1591 27.9915 61.1739 28.0292 61.1819 28.0827L61.2176 28.5531C61.3208 28.3427 61.4478 28.179 61.5986 28.0619C61.7514 27.9428 61.93 27.8833 62.1345 27.8833C62.2178 27.8833 62.2932 27.8932 62.3607 27.9131C62.4282 27.9309 62.4907 27.9567 62.5482 27.9905L62.4798 28.3864C62.4659 28.436 62.4351 28.4608 62.3875 28.4608C62.3597 28.4608 62.317 28.4519 62.2595 28.434C62.2019 28.4142 62.1216 28.4042 62.0184 28.4042C61.8338 28.4042 61.679 28.4578 61.554 28.565C61.4309 28.6722 61.3277 28.8279 61.2444 29.0323V30.9524H60.7145Z" fill="#838383"/>
<path d="M67.9194 30.5326C68.0345 30.5326 68.1397 30.5277 68.235 30.5178C68.3322 30.5059 68.4235 30.489 68.5088 30.4672C68.5942 30.4453 68.6745 30.4195 68.7499 30.3898C68.8254 30.358 68.9008 30.3223 68.9762 30.2826V29.3419H68.3153C68.2776 29.3419 68.2469 29.331 68.2231 29.3092C68.2012 29.2874 68.1903 29.2606 68.1903 29.2288V28.9014H69.5001V30.5386C69.3929 30.616 69.2808 30.6835 69.1637 30.741C69.0486 30.7986 68.9246 30.8472 68.7916 30.8869C68.6606 30.9246 68.5197 30.9524 68.3689 30.9702C68.2181 30.9901 68.0544 31 67.8777 31C67.5682 31 67.2844 30.9474 67.0264 30.8422C66.7684 30.7351 66.5461 30.5862 66.3596 30.3957C66.173 30.2032 66.0272 29.973 65.922 29.7051C65.8188 29.4372 65.7672 29.1425 65.7672 28.821C65.7672 28.4955 65.8178 28.1988 65.919 27.9309C66.0222 27.663 66.1681 27.4338 66.3566 27.2433C66.5471 27.0508 66.7763 26.902 67.0442 26.7968C67.3141 26.6916 67.6158 26.639 67.9492 26.639C68.1179 26.639 68.2746 26.6519 68.4195 26.6777C68.5644 26.7015 68.6983 26.7372 68.8214 26.7849C68.9464 26.8305 69.0615 26.8871 69.1667 26.9545C69.2719 27.02 69.3701 27.0945 69.4614 27.1778L69.2977 27.4398C69.2639 27.4933 69.2203 27.5201 69.1667 27.5201C69.1349 27.5201 69.1002 27.5092 69.0625 27.4874C69.0129 27.4596 68.9573 27.4259 68.8958 27.3862C68.8343 27.3465 68.7589 27.3088 68.6696 27.2731C68.5822 27.2354 68.4781 27.2036 68.357 27.1778C68.2379 27.152 68.096 27.1391 67.9313 27.1391C67.6912 27.1391 67.4739 27.1788 67.2794 27.2582C67.0849 27.3356 66.9192 27.4477 66.7823 27.5946C66.6454 27.7394 66.5402 27.916 66.4667 28.1244C66.3933 28.3308 66.3566 28.563 66.3566 28.821C66.3566 29.0909 66.3943 29.332 66.4697 29.5443C66.5471 29.7547 66.6553 29.9333 66.7942 30.0802C66.9331 30.227 67.0978 30.3392 67.2883 30.4165C67.4789 30.4939 67.6892 30.5326 67.9194 30.5326Z" fill="#838383"/>
<path d="M74.1282 26.6866V27.1719H72.75V30.9524H72.1725V27.1719H70.7883V26.6866H74.1282Z" fill="#838383"/>
<path d="M77.6667 29.4104C77.6945 29.458 77.7183 29.5086 77.7382 29.5622C77.76 29.6138 77.7808 29.6664 77.8007 29.72C77.8205 29.6644 77.8414 29.6118 77.8632 29.5622C77.885 29.5106 77.9098 29.459 77.9376 29.4074L79.3813 26.7849C79.4071 26.7392 79.4339 26.7114 79.4617 26.7015C79.4895 26.6916 79.5292 26.6866 79.5808 26.6866H80.0065V30.9524H79.5004V27.8178C79.5004 27.7761 79.5014 27.7315 79.5034 27.6839C79.5054 27.6362 79.5084 27.5876 79.5123 27.538L78.0507 30.2052C78.0011 30.2945 77.9317 30.3392 77.8424 30.3392H77.759C77.6697 30.3392 77.6002 30.2945 77.5506 30.2052L76.0563 27.5291C76.0622 27.5807 76.0662 27.6313 76.0682 27.6809C76.0722 27.7305 76.0741 27.7761 76.0741 27.8178V30.9524H75.5681V26.6866H75.9938C76.0454 26.6866 76.0851 26.6916 76.1128 26.7015C76.1406 26.7114 76.1674 26.7392 76.1932 26.7849L77.6667 29.4104Z" fill="#838383"/>
<path d="M84.4971 29.3568V30.9524H83.9226V26.6866H85.1818C85.4517 26.6866 85.6859 26.7184 85.8843 26.7819C86.0848 26.8434 86.2505 26.9317 86.3815 27.0468C86.5124 27.1619 86.6097 27.3008 86.6732 27.4636C86.7387 27.6263 86.7714 27.8079 86.7714 28.0083C86.7714 28.2068 86.7367 28.3884 86.6672 28.5531C86.5978 28.7178 86.4956 28.8597 86.3606 28.9788C86.2276 29.0978 86.0619 29.1911 85.8635 29.2586C85.665 29.3241 85.4378 29.3568 85.1818 29.3568H84.4971ZM84.4971 28.8984H85.1818C85.3465 28.8984 85.4914 28.8766 85.6164 28.8329C85.7434 28.7892 85.8496 28.7287 85.9349 28.6513C86.0203 28.5719 86.0848 28.4777 86.1284 28.3685C86.1721 28.2594 86.1939 28.1393 86.1939 28.0083C86.1939 27.7364 86.1096 27.5241 85.9409 27.3713C85.7742 27.2185 85.5212 27.1421 85.1818 27.1421H84.4971V28.8984Z" fill="#838383"/>
<path d="M90.3164 30.9524H90.0812C90.0296 30.9524 89.988 30.9444 89.9562 30.9286C89.9244 30.9127 89.9036 30.8789 89.8937 30.8273L89.8342 30.5475C89.7548 30.619 89.6774 30.6835 89.602 30.741C89.5265 30.7966 89.4472 30.8442 89.3638 30.8839C89.2805 30.9216 89.1912 30.9504 89.0959 30.9702C89.0026 30.9901 88.8985 31 88.7833 31C88.6663 31 88.5561 30.9841 88.4529 30.9524C88.3517 30.9186 88.2634 30.869 88.188 30.8035C88.1126 30.738 88.052 30.6557 88.0064 30.5565C87.9627 30.4552 87.9409 30.3362 87.9409 30.1992C87.9409 30.0802 87.9737 29.9661 88.0392 29.8569C88.1046 29.7458 88.2098 29.6475 88.3547 29.5622C88.5015 29.4769 88.693 29.4074 88.9292 29.3538C89.1654 29.2983 89.4541 29.2665 89.7954 29.2586V29.0234C89.7954 28.7892 89.7448 28.6126 89.6436 28.4935C89.5444 28.3725 89.3966 28.312 89.2001 28.312C89.0711 28.312 88.962 28.3288 88.8726 28.3626C88.7853 28.3943 88.7089 28.431 88.6434 28.4727C88.5799 28.5124 88.5244 28.5491 88.4767 28.5828C88.4311 28.6146 88.3854 28.6305 88.3398 28.6305C88.3041 28.6305 88.2723 28.6215 88.2445 28.6037C88.2187 28.5838 88.1979 28.56 88.182 28.5322L88.0868 28.3626C88.2535 28.2018 88.4331 28.0818 88.6256 28.0024C88.8181 27.923 89.0314 27.8833 89.2656 27.8833C89.4343 27.8833 89.5841 27.9111 89.7151 27.9667C89.8461 28.0222 89.9562 28.0996 90.0455 28.1988C90.1348 28.2981 90.2023 28.4181 90.2479 28.559C90.2936 28.6999 90.3164 28.8547 90.3164 29.0234V30.9524ZM88.9411 30.6279C89.0344 30.6279 89.1197 30.619 89.1971 30.6011C89.2745 30.5813 89.3469 30.5545 89.4144 30.5207C89.4839 30.485 89.5494 30.4423 89.6109 30.3927C89.6744 30.3431 89.7359 30.2866 89.7954 30.2231V29.595C89.5514 29.6029 89.344 29.6227 89.1733 29.6545C89.0026 29.6843 88.8637 29.7239 88.7566 29.7736C88.6494 29.8232 88.571 29.8817 88.5214 29.9492C88.4738 30.0167 88.4499 30.0921 88.4499 30.1754C88.4499 30.2548 88.4628 30.3233 88.4886 30.3808C88.5144 30.4384 88.5492 30.486 88.5928 30.5237C88.6365 30.5594 88.6881 30.5862 88.7476 30.6041C88.8072 30.62 88.8717 30.6279 88.9411 30.6279Z" fill="#838383"/>
<path d="M91.9526 30.9524V27.9369H92.2563C92.3138 27.9369 92.3535 27.9478 92.3753 27.9696C92.3972 27.9915 92.4121 28.0292 92.42 28.0827L92.4557 28.5531C92.5589 28.3427 92.6859 28.179 92.8368 28.0619C92.9896 27.9428 93.1682 27.8833 93.3726 27.8833C93.4559 27.8833 93.5313 27.8932 93.5988 27.9131C93.6663 27.9309 93.7288 27.9567 93.7863 27.9905L93.7179 28.3864C93.704 28.436 93.6732 28.4608 93.6256 28.4608C93.5978 28.4608 93.5551 28.4519 93.4976 28.434C93.44 28.4142 93.3597 28.4042 93.2565 28.4042C93.0719 28.4042 92.9171 28.4578 92.7921 28.565C92.6691 28.6722 92.5659 28.8279 92.4825 29.0323V30.9524H91.9526Z" fill="#838383"/>
<path d="M96.1012 31C95.8631 31 95.6795 30.9335 95.5505 30.8006C95.4235 30.6676 95.36 30.4761 95.36 30.226V28.3804H94.9968C94.9651 28.3804 94.9383 28.3715 94.9165 28.3536C94.8946 28.3338 94.8837 28.304 94.8837 28.2643V28.053L95.3779 27.9905L95.4999 27.0587C95.5039 27.029 95.5168 27.0052 95.5386 26.9873C95.5604 26.9674 95.5882 26.9575 95.622 26.9575H95.8899V27.9964H96.7531V28.3804H95.8899V30.1903C95.8899 30.3173 95.9206 30.4116 95.9821 30.4731C96.0437 30.5346 96.123 30.5654 96.2203 30.5654C96.2759 30.5654 96.3235 30.5584 96.3632 30.5446C96.4048 30.5287 96.4406 30.5118 96.4703 30.4939C96.5001 30.4761 96.5249 30.4602 96.5448 30.4463C96.5666 30.4304 96.5854 30.4225 96.6013 30.4225C96.6291 30.4225 96.6539 30.4394 96.6757 30.4731L96.8305 30.7261C96.7392 30.8115 96.6291 30.8789 96.5001 30.9286C96.3711 30.9762 96.2381 31 96.1012 31Z" fill="#838383"/>
<path d="M98.2418 30.9524V27.9369H98.5573C98.6327 27.9369 98.6804 27.9736 98.7002 28.047L98.7419 28.3745C98.8729 28.2296 99.0187 28.1125 99.1795 28.0232C99.3422 27.9339 99.5298 27.8893 99.7421 27.8893C99.9068 27.8893 100.052 27.917 100.177 27.9726C100.304 28.0262 100.409 28.1036 100.492 28.2048C100.578 28.304 100.642 28.4241 100.686 28.565C100.729 28.7059 100.751 28.8617 100.751 29.0323V30.9524H100.221V29.0323C100.221 28.8041 100.169 28.6275 100.064 28.5025C99.9604 28.3755 99.8016 28.312 99.5873 28.312C99.4305 28.312 99.2837 28.3497 99.1467 28.4251C99.0118 28.5005 98.8868 28.6027 98.7717 28.7317V30.9524H98.2418Z" fill="#838383"/>
<path d="M103.577 27.8893C103.758 27.8893 103.924 27.92 104.077 27.9815C104.23 28.0411 104.362 28.1284 104.473 28.2435C104.584 28.3566 104.671 28.4975 104.732 28.6662C104.796 28.8329 104.827 29.0234 104.827 29.2377C104.827 29.3211 104.819 29.3767 104.801 29.4044C104.783 29.4322 104.749 29.4461 104.699 29.4461H102.693C102.697 29.6366 102.723 29.8023 102.77 29.9432C102.818 30.0841 102.884 30.2022 102.967 30.2975C103.05 30.3907 103.15 30.4612 103.265 30.5088C103.38 30.5545 103.509 30.5773 103.652 30.5773C103.785 30.5773 103.899 30.5624 103.994 30.5326C104.091 30.5009 104.175 30.4672 104.244 30.4314C104.313 30.3957 104.371 30.363 104.417 30.3332C104.464 30.3014 104.505 30.2856 104.539 30.2856C104.582 30.2856 104.616 30.3024 104.64 30.3362L104.789 30.5297C104.723 30.609 104.645 30.6785 104.554 30.738C104.462 30.7956 104.364 30.8432 104.259 30.8809C104.156 30.9186 104.049 30.9464 103.937 30.9643C103.826 30.9841 103.716 30.994 103.607 30.994C103.399 30.994 103.206 30.9593 103.029 30.8899C102.855 30.8184 102.703 30.7152 102.574 30.5803C102.447 30.4433 102.348 30.2747 102.276 30.0742C102.205 29.8738 102.169 29.6436 102.169 29.3836C102.169 29.1732 102.201 28.9768 102.264 28.7942C102.33 28.6116 102.423 28.4539 102.544 28.3209C102.665 28.1859 102.813 28.0808 102.988 28.0054C103.162 27.928 103.359 27.8893 103.577 27.8893ZM103.589 28.2792C103.333 28.2792 103.132 28.3536 102.985 28.5025C102.838 28.6493 102.747 28.8537 102.711 29.1157H104.351C104.351 28.9927 104.334 28.8805 104.301 28.7793C104.267 28.6761 104.217 28.5878 104.152 28.5144C104.086 28.439 104.006 28.3814 103.911 28.3417C103.817 28.3001 103.71 28.2792 103.589 28.2792Z" fill="#838383"/>
<path d="M106.339 30.9524V27.9369H106.643C106.7 27.9369 106.74 27.9478 106.762 27.9696C106.784 27.9915 106.799 28.0292 106.806 28.0827L106.842 28.5531C106.945 28.3427 107.072 28.179 107.223 28.0619C107.376 27.9428 107.555 27.8833 107.759 27.8833C107.842 27.8833 107.918 27.8932 107.985 27.9131C108.053 27.9309 108.115 27.9567 108.173 27.9905L108.104 28.3864C108.09 28.436 108.06 28.4608 108.012 28.4608C107.984 28.4608 107.942 28.4519 107.884 28.434C107.827 28.4142 107.746 28.4042 107.643 28.4042C107.458 28.4042 107.304 28.4578 107.179 28.565C107.056 28.6722 106.952 28.8279 106.869 29.0323V30.9524H106.339Z" fill="#838383"/>
</svg>
