<svg width="242" height="244" viewBox="0 0 242 244" fill="none" xmlns="http://www.w3.org/2000/svg">
<path d="M153.619 65.3927C151.33 66.434 149.036 67.4647 146.712 68.436C145.487 68.9651 144.249 69.4823 143.064 70.0925C136.739 73.3557 130.449 76.6971 124.045 79.8058C120.093 81.701 116.122 83.5549 112.131 85.3676L106.137 88.0679L100.113 90.7004C98.8804 91.2012 97.6097 91.6015 96.3133 91.8975C95.7878 92.0426 95.2356 92.0597 94.702 91.9471C94.1685 91.8345 93.6691 91.5956 93.2449 91.2501C92.049 90.3189 92.1589 88.715 93.6396 87.6867C94.6189 87.0417 95.6745 86.5229 96.7818 86.1423C99.2875 85.2266 101.744 84.2068 104.153 83.083C106.565 81.9679 108.931 80.7534 111.252 79.4395C112.534 78.7154 113.831 77.883 115.205 77.4613C119.592 76.1087 123.597 73.8394 127.837 72.1387C130.988 70.8725 134.047 69.3645 137.163 68.0016L145.494 64.3478C148.263 63.1141 151.067 61.9488 153.842 60.7229C154.936 60.2763 156.059 59.9028 157.202 59.6049C158.29 59.3504 159.391 59.1569 160.501 59.0253C161.482 58.9067 161.715 59.5206 160.886 60.2938C159.694 61.4003 158.428 62.4214 157.095 63.3498C156.548 63.7317 155.977 64.0833 155.391 64.4107C154.793 64.7132 154.193 65.0168 153.597 65.3185L153.619 65.3927Z" fill="white"/>
<path d="M165.694 137.771L162.483 137.614L159.272 137.378C158.136 137.297 156.995 137.215 155.858 137.232C154.341 137.251 152.824 137.289 151.308 137.333L146.76 137.439L137.668 137.669L126.472 137.925L115.277 138.243C114.142 138.243 113.009 138.162 111.885 137.999C111.422 137.951 110.976 137.795 110.583 137.543C110.19 137.29 109.861 136.949 109.622 136.546C108.939 135.447 109.503 134.213 111.008 133.832C111.992 133.606 113.001 133.509 114.009 133.543C118.591 133.605 123.173 133.375 127.726 132.854C128.98 132.633 130.255 132.556 131.526 132.625C135.458 133.068 139.4 132.691 143.331 132.896C146.25 133.051 149.185 132.995 152.109 133.136C157.323 133.407 162.53 133.729 167.725 134.243C169.699 134.417 171.632 134.918 173.444 135.728C174.229 136.077 174.146 136.737 173.209 136.964C171.864 137.279 170.5 137.504 169.126 137.639C167.989 137.729 166.847 137.75 165.706 137.704L165.694 137.771Z" fill="white"/>
<path d="M137.281 200.573C135.781 199.467 134.285 198.354 132.794 197.233C132.027 196.604 131.224 196.021 130.389 195.488C128.136 194.117 125.853 192.795 123.57 191.475C121.29 190.152 119.02 188.815 116.772 187.443C114.001 185.759 111.249 184.046 108.493 182.34L100.252 177.175C99.4296 176.613 98.6778 175.952 98.0137 175.207C97.3494 174.515 97.2711 173.474 97.5199 172.326C97.8822 170.652 99.2319 169.449 100.573 169.784C101.421 170.026 102.21 170.442 102.891 171.007C106.054 173.451 109.491 175.51 113.13 177.143C114.138 177.6 115.236 178 116.013 178.772C118.501 181.221 121.612 182.72 124.306 184.848C126.311 186.421 128.457 187.799 130.491 189.333C132.305 190.701 134.108 192.082 135.9 193.478L141.194 197.776C142.581 198.89 143.685 200.322 144.414 201.952C144.497 202.112 144.531 202.294 144.512 202.473C144.492 202.653 144.42 202.823 144.304 202.961C144.188 203.098 144.034 203.198 143.861 203.247C143.689 203.296 143.505 203.292 143.335 203.235C142.162 202.906 141.008 202.508 139.882 202.042C138.997 201.595 138.146 201.082 137.335 200.508L137.281 200.573Z" fill="white"/>
<path d="M84.3053 217.424C84.0661 216.982 83.811 216.55 83.598 216.093L82.9636 214.72C82.7517 214.229 82.4992 213.757 82.2089 213.308C81.3923 212.14 80.5289 210.999 79.7342 209.818C78.9253 208.646 78.1234 207.469 77.3663 206.266C76.4319 204.786 75.5236 203.29 74.6654 201.765L72.0896 197.191C71.8537 196.693 71.712 196.155 71.6717 195.605C71.6009 195.069 72.0477 194.436 72.7427 193.801C73.7554 192.876 75.1386 192.413 75.7823 192.859C76.1663 193.146 76.4501 193.548 76.5928 194.008C77.3298 196.032 78.4571 197.889 79.9095 199.471C80.3116 199.916 80.8099 200.334 80.9222 200.929C81.2992 202.82 82.5187 204.236 83.2062 205.951C83.7088 207.23 84.4605 208.373 84.999 209.634C85.9693 211.879 86.989 214.093 87.8887 216.377C88.2752 217.316 88.3628 218.354 88.1393 219.345C88.1097 219.466 88.0542 219.579 87.9767 219.676C87.8992 219.773 87.8016 219.852 87.6907 219.907C87.5797 219.962 87.4582 219.992 87.3346 219.994C87.211 219.997 87.0882 219.972 86.975 219.922C86.6805 219.739 86.3913 219.543 86.1112 219.339C85.8321 219.144 85.57 218.926 85.3279 218.686C84.969 218.285 84.6473 217.853 84.3666 217.394L84.3053 217.424Z" fill="white"/>
<path d="M84.1932 33.8341C83.6639 34.912 83.1245 35.9824 82.5749 37.0453C82.27 37.6008 81.9986 38.1744 81.7622 38.763C81.2008 40.355 80.6208 41.9436 80.0103 43.5229C79.3935 45.0993 78.7173 46.6507 77.9819 48.177C77.0577 50.0444 76.0772 51.8852 75.0205 53.6814C73.9647 55.4778 72.8608 57.2442 71.7088 58.9806C71.3275 59.5016 70.8616 59.9538 70.3309 60.3182C69.8361 60.6975 69.0667 60.6274 68.2111 60.3126C66.9655 59.8527 66.0319 58.7736 66.2153 57.9218C66.3526 57.3949 66.6226 56.913 66.9992 56.5227C68.6265 54.6959 69.8771 52.5605 70.6782 50.2408C70.9083 49.5997 71.0652 48.8906 71.5333 48.4092C73.0405 46.8698 73.6845 44.8308 74.7981 43.0597C75.2085 42.3979 75.583 41.714 75.92 41.0112C76.2721 40.3159 76.6027 39.6098 76.9632 38.9178C78.2459 36.4488 79.5126 33.9568 80.6656 31.4039C81.1843 30.3458 82.0263 29.4839 83.0676 28.9453C83.5451 28.6481 84.0919 28.8579 84.3856 29.4971L84.6078 30.1536C84.6474 30.2539 84.6671 30.361 84.6657 30.4689L84.6788 30.7713C84.6927 31.1703 84.6827 31.5698 84.6489 31.9676C84.6187 32.2868 84.555 32.6019 84.4587 32.9075C84.3496 33.2066 84.2272 33.5018 84.1233 33.802L84.1932 33.8341Z" fill="white"/>
</svg>
