<svg width="173" height="174" viewBox="0 0 173 174" fill="none" xmlns="http://www.w3.org/2000/svg">
<path d="M105.049 31.9664C107.92 32.9932 110.721 34.2318 113.412 35.6964C116.099 37.1625 118.694 38.8473 121.084 40.7967C125.838 44.647 129.937 49.2066 133.375 54.1942C137.026 59.4846 139.901 65.3127 142.003 71.3891C142.691 73.4223 143.291 75.4888 143.776 77.5892C144.246 79.6931 144.609 81.8258 144.847 83.9803C145.082 86.1356 145.163 88.3145 145.11 90.4968C145.086 91.0426 145.086 91.5887 145.04 92.1344L144.909 93.772L144.706 95.4059C144.647 95.9516 144.526 96.491 144.439 97.0338C144.389 97.3045 144.348 97.5767 144.29 97.8461L144.108 98.6531C143.985 99.1905 143.867 99.7362 143.721 100.242L143.302 101.788C143.155 102.302 142.993 102.812 142.839 103.323L142.605 104.091L142.348 104.851C142.174 105.357 142.008 105.866 141.827 106.369C141.449 107.372 141.085 108.38 140.661 109.366C140.265 110.362 139.804 111.333 139.364 112.312C138.886 113.275 138.425 114.246 137.904 115.187C136.888 117.082 135.778 118.932 134.553 120.707C133.332 122.483 132.03 124.208 130.616 125.841C129.203 127.474 127.701 129.031 126.115 130.499C122.944 133.438 119.415 135.983 115.66 138.119C111.895 140.239 107.892 141.922 103.761 143.159C99.6246 144.381 95.3623 145.15 91.0691 145.478C80.4919 146.254 69.7409 144.314 60.077 139.884C55.2463 137.67 50.6876 134.84 46.5583 131.469L45.785 130.836L45.0193 130.166C44.5029 129.725 44.0111 129.257 43.5209 128.786C42.5372 127.849 41.6118 126.852 40.7117 125.834C38.9316 123.779 37.3418 121.562 35.9466 119.235C33.1427 114.583 31.2005 109.468 29.982 104.238C28.7859 98.9971 28.3223 93.6263 28.5002 88.3025C28.8764 77.6514 31.7144 67.1664 36.7206 57.7955C39.7511 52.1445 43.8343 46.9847 48.5517 42.7633C50.8214 40.7499 52.9337 39.3797 54.7632 38.4683C55.6731 38.0038 56.5311 37.6781 57.2951 37.4135C58.0778 37.1781 58.764 36.9969 59.3942 36.916C61.2216 36.6705 61.5013 37.3183 60.552 38.5094C60.4333 38.6588 60.2942 38.8151 60.1379 38.9823C59.9846 39.1549 59.8126 39.336 59.6224 39.5252C59.4322 39.7144 59.2236 39.9114 58.9973 40.1161C58.7766 40.3301 58.5382 40.5521 58.2825 40.7815C57.2621 41.7029 55.9935 42.7923 54.5514 44.109C50.8852 47.4168 47.2914 51.4853 44.4019 55.7463C41.0578 60.6362 38.4636 66.076 36.679 71.7712C34.8853 77.4642 33.8963 83.423 33.8029 89.3804C33.747 92.3591 33.9408 95.3348 34.3494 98.2708C34.7824 101.202 35.4329 104.097 36.3629 106.888C38.202 112.475 41.1027 117.67 44.97 121.969C46.0431 123.149 47.1931 124.274 48.4028 125.337C49.6105 126.381 50.9361 127.4 52.2521 128.366C54.917 130.278 57.6858 131.992 60.455 133.493C62.6625 134.7 64.9618 135.751 67.3266 136.639C69.6929 137.523 72.1258 138.238 74.5968 138.788C79.5389 139.888 84.639 140.317 89.6966 140.036C99.8159 139.512 109.749 136.149 117.998 130.34C124.149 126.044 129.292 120.284 133.05 113.688C133.98 112.033 134.856 110.344 135.634 108.605C136.4 106.861 137.128 105.096 137.736 103.283L137.973 102.606L138.189 101.923L138.621 100.554L139.011 99.1716L139.206 98.4802L139.369 97.8029C139.469 97.3502 139.6 96.9054 139.678 96.4465L139.935 95.076C140.063 94.1531 140.208 93.2324 140.276 92.2987C140.371 91.4709 140.383 90.6331 140.43 89.7988L140.437 88.5422L140.44 87.9135L140.416 87.284C140.384 85.6047 140.198 83.9252 139.986 82.2506C139.498 78.9068 138.717 75.5866 137.61 72.3648C137.081 70.7456 136.435 69.1655 135.774 67.5927C135.074 66.0367 134.355 64.486 133.534 62.9873C131.93 59.9695 130.062 57.093 127.989 54.3781C123.831 48.971 118.812 44.1663 112.982 40.7484C107.141 37.2949 100.568 35.0556 93.8412 33.9024C88.4637 32.9958 83.1401 32.7399 78.0513 33.0426C72.9601 33.347 68.1018 34.2138 63.5928 35.6004C63.0773 35.7666 62.6125 35.8773 62.2221 35.9822C61.8312 36.0857 61.499 36.1503 61.2283 36.1785C60.687 36.2347 60.3913 36.1451 60.3669 35.926C60.3423 35.7071 60.5897 35.3582 61.1331 34.8979C61.4047 34.6681 61.7476 34.4042 62.1806 34.149C62.6126 33.8926 63.1125 33.5894 63.7076 33.3144C65.381 32.5017 67.1367 31.8225 68.9332 31.2102C70.7369 30.6249 72.5879 30.1349 74.4698 29.744C78.2368 28.9884 82.1193 28.6215 85.9876 28.6588C92.3581 28.6876 98.8436 29.9595 104.968 32.0271C104.994 32.006 105.018 31.9867 105.049 31.9664Z" fill="white"/>
<path d="M49.4845 79.3927C50.3258 78.774 51.1753 78.164 52.0048 77.5321C52.4432 77.1958 52.8907 76.865 53.2574 76.4559C54.2274 75.3726 55.2228 74.189 56.4487 73.0579C57.6668 71.9364 59.1683 70.838 61.0275 70.2032C62.1665 69.8279 63.3719 69.6076 64.5474 69.6026C65.7217 69.5926 66.8559 69.7484 67.9215 70.0005C68.9921 70.2499 69.9818 70.6098 70.9247 71.0041C71.8676 71.3999 72.7599 71.8407 73.6091 72.3003C74.1254 72.5755 74.5325 73.0448 74.9101 73.5066C75.2758 73.9508 75.2085 74.7397 74.9255 75.6491C74.508 76.9737 73.5175 78.0725 72.7355 78.0135C72.2409 77.982 71.8219 77.7437 71.4653 77.4571C70.6427 76.7973 69.7605 76.2744 68.8431 75.9323C67.9288 75.5904 66.9761 75.4332 66.0933 75.5136C65.5982 75.5486 65.1405 75.7357 64.7339 75.5321C64.0734 75.2214 63.3807 75.2652 62.7448 75.4411C62.1053 75.6228 61.4945 75.9692 60.7905 76.278C59.7312 76.7468 58.8125 77.649 57.7804 78.5032C55.869 80.1105 53.9583 81.7173 52.0475 83.3241C51.2836 83.9698 50.3172 84.3265 48.9403 84.1152C48.3046 84.0155 47.4484 83.105 47.5694 82.5908C47.7392 81.8612 48.0307 81.2122 48.3893 80.6366C48.6833 80.1623 49.15 79.8437 49.5402 79.4567C49.5215 79.4351 49.5041 79.4152 49.4845 79.3927Z" fill="white"/>
<path d="M115.96 70.5963C115.102 69.9491 114.219 69.3227 113.295 68.7584C112.806 68.4597 112.308 68.1614 111.766 67.9828C110.323 67.5008 108.847 67.146 107.37 66.87C105.9 66.5908 104.555 66.4658 103.53 66.6058C103.214 66.6482 102.93 66.7148 102.67 66.8042C102.558 66.852 102.488 66.8944 102.385 66.9284C102.267 67.0057 102.152 67.064 102.026 67.1393C101.502 67.4716 100.89 68.0083 100.305 68.6089C99.1211 69.8165 97.9834 71.2944 96.9341 72.8323C96.6193 73.299 96.1317 73.6615 95.6545 74.0283C95.1949 74.3762 94.4118 74.3109 93.4985 74.029C92.1678 73.6222 91.0868 72.6011 91.2368 71.6918C91.3295 71.1206 91.6444 70.6228 92.0158 70.2041C92.8708 69.2387 93.6631 68.2447 94.4364 67.2073C95.2142 66.1698 95.9587 65.0903 96.8232 63.9486C97.0774 63.6358 97.2963 63.2941 97.6109 62.9941C97.7614 62.8433 97.9192 62.7007 98.0863 62.5746C98.2683 62.4506 98.4658 62.3442 98.6696 62.2636C98.9804 62.1316 99.3452 62.0051 99.6881 61.8747L99.9447 61.7762C100.033 61.7442 100.135 61.7161 100.23 61.6861L100.802 61.5108C101.53 61.3131 102.214 61.1998 102.901 61.1304C104.265 60.9997 105.553 61.0955 106.696 61.4229C107.506 61.6593 108.317 61.8961 109.129 62.1332C109.915 62.367 110.697 62.6158 111.453 62.9293C114.155 64.0399 116.693 65.4658 119.069 67.0781C120.016 67.7214 120.711 68.6688 120.851 70.1208C120.915 70.7889 120.179 71.7977 119.636 71.7689C118.865 71.7238 118.149 71.5728 117.488 71.3523C116.945 71.1736 116.502 70.7978 116.005 70.5244C115.99 70.5486 115.976 70.571 115.96 70.5963Z" fill="white"/>
<path d="M116.376 99.8486C115.192 102.155 113.777 104.342 112.149 106.362C111.709 106.891 111.26 107.414 110.806 107.932L110.109 108.696L109.769 109.084L109.415 109.461C108.195 110.838 106.807 112.081 105.322 113.204C103.837 114.331 102.221 115.306 100.529 116.089C97.1444 117.664 93.4748 118.556 89.7856 118.788C87.5129 118.925 85.2323 118.821 82.9833 118.498C80.7289 118.174 78.5255 117.624 76.3958 116.9C72.1272 115.451 68.1797 113.277 64.5896 110.704C63.4985 109.933 62.5693 108.931 61.6962 107.942C60.8661 106.982 60.7354 105.909 60.9937 104.894C61.1806 104.155 61.6561 103.642 62.2571 103.409C62.8628 103.172 63.576 103.234 64.306 103.619C64.765 103.868 65.2076 104.168 65.6403 104.485C66.0663 104.812 66.4852 105.153 66.8804 105.502C68.7012 107.11 70.7222 108.467 72.8581 109.562C75.005 110.629 77.27 111.442 79.5872 111.86C80.8672 112.112 82.2018 112.176 83.3853 112.565C85.2924 113.179 87.3186 113.362 89.3146 113.289C91.3173 113.222 93.2827 112.873 95.2226 112.473C96.6653 112.171 98.0777 111.701 99.4057 111.067C100.74 110.441 101.989 109.67 103.204 108.833C105.343 107.301 107.284 105.42 108.905 103.238C109.737 102.165 110.461 101 111.152 99.8124C111.475 99.2047 111.821 98.6079 112.109 97.9781C112.256 97.6656 112.414 97.3573 112.555 97.0405L112.964 96.0835C113.819 94.0352 114.772 92.1541 116.252 90.4845C116.94 89.7186 118.157 89.9834 118.205 91.111C118.289 92.7019 118.103 94.3536 117.746 95.9604C117.589 96.6183 117.388 97.2733 117.12 97.9074L116.728 98.8616C116.586 99.1758 116.445 99.4898 116.304 99.8028C116.328 99.8179 116.35 99.8321 116.376 99.8486Z" fill="white"/>
</svg>
