<svg width="13" height="13" viewBox="0 0 13 13" fill="none" xmlns="http://www.w3.org/2000/svg">
<path d="M0 0.931126C0 0.416813 0.427375 0 0.954688 0H12.0453C12.5726 0 13 0.416813 13 0.931126V12.0689C13 12.5832 12.5726 13 12.0453 13H0.954688C0.427375 13 0 12.5832 0 12.0689V0.931126ZM4.01619 10.8826V5.01232H2.06538V10.8826H4.01619ZM3.04119 4.21038C3.72125 4.21038 4.14457 3.76025 4.14457 3.19638C4.13238 2.62032 3.72207 2.18238 3.05419 2.18238C2.38631 2.18238 1.95 2.62113 1.95 3.19638C1.95 3.76025 2.37331 4.21038 3.02819 4.21038H3.04119ZM7.02894 10.8826V7.6042C7.02894 7.42869 7.04194 7.25319 7.09394 7.12807C7.23451 6.77788 7.55545 6.41469 8.09495 6.41469C8.80101 6.41469 9.08295 6.95257 9.08295 7.74232V10.8826H11.0338V7.51563C11.0338 5.71188 10.0718 4.87338 8.78801 4.87338C7.75288 4.87338 7.28894 5.44213 7.02894 5.84269V5.86301H7.01594L7.02894 5.84269V5.01232H5.07894C5.10332 5.56319 5.07894 10.8826 5.07894 10.8826H7.02894Z" fill="white"/>
</svg>
