<svg width="38" height="38" viewBox="0 0 38 38" fill="none" xmlns="http://www.w3.org/2000/svg">
<path fill-rule="evenodd" clip-rule="evenodd" d="M33.4294 4.56054H25.9795V9.75791e-06H37.9999V12.0204H33.4294V4.56054Z" fill="#F37616"/>
<path fill-rule="evenodd" clip-rule="evenodd" d="M33.3135 21.2645H18.4572V16.7354H37.8679L37.9209 17.2387C37.9739 17.821 38 18.4034 38 19.0126C38 29.4989 29.4997 38 19.0135 38C8.52719 38 0 29.4997 0 19.0135C0 8.52719 8.52719 0 19.0135 0H19.5428V4.52826H19.0135C11.0164 4.52826 4.52826 11.0164 4.52826 19.0135C4.52826 27.0105 11.0164 33.4717 19.0135 33.4717C26.243 33.4717 32.228 28.176 33.3135 21.2645Z" fill="#2D2D2D"/>
<path d="M13.095 16.9645H17.257V21.1265H13.095V16.9645Z" fill="#F37616"/>
</svg>
