<svg width="191" height="130" viewBox="0 0 191 130" fill="none" xmlns="http://www.w3.org/2000/svg">
<path d="M16.3489 29.4135C18.6728 35.1477 21.7367 40.5482 25.4624 45.477C27.7813 48.6734 30.4964 52.1144 33.5006 55.6873C36.6955 59.53 40.1531 63.1443 43.8487 66.5043C45.8449 68.306 47.9576 69.9734 50.173 71.4958C52.454 73.104 54.8755 74.5023 57.408 75.6738C59.9891 76.9042 62.7077 77.8228 65.5068 78.4104C68.3258 79.0444 71.2193 79.2904 74.1078 79.1415L74.5851 79.1039C74.5282 78.9503 74.4391 78.7979 74.3691 78.6382C71.7554 72.5941 71.1714 65.8529 72.705 59.429C73.5177 56.1791 74.9803 53.1264 77.0038 50.4569C79.1213 47.6593 81.9157 45.45 85.12 44.0401C86.7872 43.2454 88.5688 42.7219 90.3977 42.4893C92.4455 42.2136 94.5269 42.4097 96.4838 43.0629C98.3677 43.7451 100.085 44.8194 101.524 46.2155C102.963 47.6116 104.09 49.2981 104.833 51.1647C106.177 54.5469 106.296 58.3 105.168 61.7716C104.154 64.9567 102.525 67.9125 100.375 70.4703C98.2827 73.0038 95.8144 75.1996 93.0577 76.9801C89.6123 79.1945 85.8187 80.8051 81.8398 81.7427C82.3761 82.4946 82.9618 83.2096 83.593 83.8831C87.2882 87.8836 91.8265 91.0058 96.8798 93.024C101.579 94.938 106.543 96.1259 111.602 96.5474C116.019 96.9383 120.468 96.7866 124.853 96.0956C128.566 95.4224 132.212 94.4147 135.748 93.085C141.3 91.0619 146.617 88.4349 151.604 85.251C154.966 83.1421 158.165 80.7811 161.173 78.1883C163.574 76.0912 165.241 74.4894 166.505 73.2145C167.62 72.127 168.326 71.3797 168.896 70.8257L167.732 71.0452C164.416 71.6711 161.406 72.1815 158.857 72.551C153.765 73.2768 150.481 73.5185 150.357 72.9195C150.234 72.3205 153.132 71.1848 158.013 69.7399C160.459 69.0043 163.375 68.2119 166.64 67.3867L167.878 67.0735C168.409 66.933 168.951 66.8385 169.498 66.7912C169.85 66.7667 170.203 66.7728 170.553 66.8096C170.999 66.8554 171.435 66.9633 171.851 67.1302C172.706 67.4739 173.429 68.0832 173.914 68.8693C174.469 69.909 174.823 71.0451 174.957 72.2181L175.493 74.9046C178.193 89.8617 179.475 102.114 178.309 102.236C177.142 102.358 173.991 90.3395 171.279 75.3764L170.942 73.4029C170.496 74.1305 170.003 74.8279 169.466 75.4907C167.905 77.4998 166.195 79.3875 164.351 81.1378C161.344 84.0502 158.078 86.6797 154.594 88.9931C149.409 92.4995 143.832 95.3827 137.981 97.5829C134.136 99.0463 130.164 100.147 126.118 100.87C121.278 101.662 116.36 101.842 111.48 101.407C105.841 100.94 100.31 99.6067 95.081 97.4545C89.2434 95.0999 84.0117 91.4591 79.771 86.8001C78.5434 85.4628 77.4545 84.0035 76.5208 82.4447C75.8759 82.5017 75.231 82.5586 74.591 82.57C71.3515 82.6901 68.1124 82.3722 64.961 81.6248C61.9025 80.9123 58.9387 79.8443 56.1294 78.4423C53.4364 77.1298 50.8688 75.574 48.4582 73.794C46.1767 72.1596 44.0061 70.3751 41.9605 68.452C38.2465 64.9361 34.7972 61.1488 31.6405 57.1211C28.6743 53.3954 26.0572 49.8554 23.7891 46.5013C20.1755 41.3473 17.3424 35.6826 15.3815 29.6905C14.8838 28.0941 14.5092 26.4612 14.261 24.8062C14.1262 23.6754 14.0754 23.1255 14.1773 23.0762C14.2791 23.0269 14.8307 25.4012 16.3752 29.4255L16.3489 29.4135ZM79.1377 76.951C79.3275 77.4047 79.5557 77.8439 79.7838 78.2831C83.6436 77.4179 87.3142 75.8457 90.6113 73.6457C93.0153 72.0333 95.1611 70.0626 96.9745 67.8019C98.7745 65.5999 100.125 63.0647 100.949 60.3417C101.745 57.7583 101.62 54.9807 100.596 52.4877C100.107 51.2573 99.3648 50.1452 98.418 49.2238C97.4711 48.3024 96.3406 47.5924 95.1001 47.1401C92.511 46.4767 89.7644 46.8056 87.3953 48.0626C84.8684 49.2129 82.6744 50.9925 81.0226 53.2317C79.3999 55.4668 78.2418 58.0057 77.6177 60.6963C76.9751 63.3943 76.7775 66.178 77.0329 68.9364C77.2711 71.7044 77.9738 74.41 79.1115 76.939" fill="#F37616"/>
</svg>
